<?xml version="1.0" standalone="no"?><!-- Generator: Gravit.io --><svg xmlns="http://www.w3.org/2000/svg" xmlns:xlink="http://www.w3.org/1999/xlink" style="isolation:isolate" viewBox="0 0 448 448" width="448" height="448"><defs><clipPath id="_clipPath_oeT89xADrX1KwLCrGPFzszW4Uvrx3N1Z"><rect width="448" height="448"/></clipPath></defs><g clip-path="url(#_clipPath_oeT89xADrX1KwLCrGPFzszW4Uvrx3N1Z)"><path d=" M 120.12 176.29 C 116.24 173.39 112.35 171.94 108.47 171.94 L 91.03 171.94 L 91.03 276.41 L 108.48 276.41 C 112.36 276.41 116.25 274.96 120.13 272.06 C 124.01 269.16 125.95 264.81 125.95 259 L 125.95 189.35 C 125.94 183.55 123.99 179.19 120.12 176.29 L 120.12 176.29 Z  M 404.1 0 L 43.9 0 C 19.7 0 0.06 19.59 0 43.8 L 0 404.2 C 0.06 428.41 19.7 448 43.9 448 L 404.1 448 C 428.31 448 447.94 428.41 448 404.2 L 448 43.8 C 447.94 19.59 428.3 0 404.1 0 L 404.1 0 Z  M 154.2 259.19 C 154.2 278 142.59 306.5 105.84 306.44 L 59.44 306.44 L 59.44 140.98 L 106.82 140.98 C 142.26 140.98 154.18 169.44 154.19 188.26 L 154.2 259.19 Z  M 254.88 170.53 L 201.6 170.53 L 201.6 208.95 L 234.17 208.95 L 234.17 238.52 L 201.6 238.52 L 201.6 276.93 L 254.89 276.93 L 254.89 306.5 L 192.71 306.5 C 181.55 306.79 172.27 297.97 171.99 286.81 L 171.99 161.7 C 171.72 150.55 180.55 141.29 191.7 141.01 L 254.89 141.01 L 254.88 170.53 Z  M 358.52 285.82 C 345.32 316.57 321.67 310.45 311.08 285.82 L 272.55 141.02 L 305.12 141.02 L 334.83 254.74 L 364.4 141.02 L 396.98 141.02 L 358.52 285.82 L 358.52 285.82 Z " fill="rgb(0,0,0)"/></g></svg>