<?xml version="1.0" standalone="no"?><!-- Generator: Gravit.io --><svg xmlns="http://www.w3.org/2000/svg" xmlns:xlink="http://www.w3.org/1999/xlink" style="isolation:isolate" viewBox="0 0 217.8 199" width="217.8" height="199"><defs><clipPath id="_clipPath_PE9imwhvoegy3FUun1c5KYbLn6iH4SY5"><rect width="217.8" height="199"/></clipPath></defs><g clip-path="url(#_clipPath_PE9imwhvoegy3FUun1c5KYbLn6iH4SY5)"><g><g><path d=" M 108.911 14.51 C 48.761 14.51 0 63.271 0 123.421 C 0 144.188 5.814 163.594 15.9 180.108 L 44.353 149.897 L 188.364 150.797 L 187.322 199 C 206.205 179.414 217.822 152.775 217.822 123.421 C 217.822 63.271 169.061 14.51 108.911 14.51 Z " fill="rgb(51,160,255)"/></g><g><path d=" M 59.678 45.552 C 54.37 45.226 50.302 40.64 50.611 35.326 L 51.332 23.69 C 51.647 18.6 55.892 14.611 60.993 14.611 C 61.184 14.611 61.376 14.617 61.568 14.629 L 73.197 15.349 C 75.77 15.506 78.135 16.659 79.847 18.597 C 81.563 20.536 82.418 23.03 82.253 25.617 L 81.539 37.208 C 81.497 37.877 81.362 38.408 81.279 38.698 L 80.866 40.723 L 73.213 46.389 L 59.678 45.552 Z " fill="rgb(61,204,142)"/></g><g><path d=" M 60.994 8.768 C 52.812 8.768 46.006 15.163 45.5 23.329 L 44.779 34.944 L 44.778 34.966 L 44.777 34.987 C 44.281 43.508 50.808 50.863 59.325 51.385 L 70.726 52.09 L 74.978 52.352 L 78.402 49.818 L 82.543 46.753 L 86.141 44.089 L 86.968 40.05 C 87.131 39.43 87.308 38.596 87.372 37.575 L 88.085 25.973 C 88.347 21.827 86.973 17.832 84.22 14.72 C 81.48 11.618 77.686 9.767 73.543 9.515 L 61.947 8.796 L 61.93 8.796 L 61.913 8.795 C 61.608 8.777 61.299 8.768 60.994 8.768 Z  M 69.677 34.118 L 70.104 27.209 L 63.194 26.782 L 62.765 33.692 L 69.677 34.118 Z  M 60.994 20.455 C 61.07 20.455 61.147 20.458 61.225 20.462 L 72.835 21.182 C 73.852 21.243 74.79 21.699 75.467 22.466 C 76.147 23.235 76.486 24.222 76.421 25.244 L 75.706 36.849 C 75.695 37.029 75.623 37.187 75.589 37.358 L 71.448 40.424 L 60.039 39.719 C 57.935 39.589 56.323 37.772 56.445 35.666 L 57.165 24.052 C 57.291 22.025 58.972 20.455 60.994 20.455 Z " fill="rgb(40,40,40)"/></g><g><path d=" M 108.911 70.962 C 63.438 70.962 26.574 107.826 26.574 153.299 C 26.574 170.209 31.674 185.924 40.416 198.999 L 180.713 198.999 C 188.098 185.512 191.248 169.543 191.248 153.299 C 191.248 111.213 154.384 70.962 108.911 70.962 Z " fill="rgb(255,255,255)"/></g><g><path d=" M 108.911 65.118 C 60.288 65.118 20.73 104.676 20.73 153.299 C 20.73 170.017 25.407 185.665 33.521 199 L 47.608 199 C 38.071 186.241 32.419 170.417 32.419 153.299 C 32.419 111.121 66.732 76.805 108.911 76.805 C 128.945 76.805 148.134 85.193 162.942 100.423 C 177.217 115.103 185.405 134.376 185.405 153.299 C 185.405 166.255 183.265 183.862 173.962 199 L 187.302 199 C 193.74 186.041 197.092 170.547 197.092 153.299 C 197.092 131.359 187.7 109.117 171.322 92.274 C 154.294 74.762 132.129 65.118 108.911 65.118 Z " fill="rgb(40,40,39)"/></g><g><path d=" M 92.287 177.2 C 92.287 181.566 88.749 185.105 84.383 185.105 C 80.017 185.105 76.479 181.566 76.479 177.2 C 76.479 172.835 80.017 169.296 84.383 169.296 C 88.749 169.296 92.287 172.835 92.287 177.2 Z " fill="rgb(40,40,39)"/></g><g><path d=" M 141.343 177.2 C 141.343 181.566 137.805 185.105 133.439 185.105 C 129.073 185.105 125.535 181.566 125.535 177.2 C 125.535 172.835 129.073 169.296 133.439 169.296 C 137.805 169.296 141.343 172.835 141.343 177.2 Z " fill="rgb(40,40,39)"/></g><g><path d=" M 19.075 174.065 L 62.95 127.533 L 52.39 160.64 C 86.644 135.713 122.604 139.654 147.924 147.09 C 174.799 154.981 193.615 131.245 175.195 105.925 C 166.443 93.891 154.437 83.9 140.8 77.841 C 105.032 61.952 69.071 71.216 44.812 95.721 C 19.115 121.68 19.075 150.472 19.075 174.065 Z " fill="rgb(255,111,33)"/></g><g><path d=" M 104.788 75.827 C 99.695 75.827 94.638 76.335 89.667 77.357 C 74.508 80.475 60.434 88.247 48.966 99.833 C 29.916 119.076 25.957 139.729 25.135 159.12 L 76.327 104.826 L 62.774 147.312 C 88.243 133.997 117.365 132.027 149.57 141.483 C 159.818 144.492 169.107 142.211 173.813 135.532 C 178.648 128.669 177.398 118.887 170.47 109.362 C 162.191 97.981 150.811 88.684 138.427 83.181 C 127.443 78.302 116.032 75.827 104.788 75.827 Z  M 13.232 188.782 L 13.232 174.065 C 13.232 149.673 13.232 119.317 40.659 91.61 C 53.755 78.381 69.888 69.494 87.312 65.909 C 105.655 62.136 124.971 64.415 143.173 72.5 C 157.403 78.822 170.455 89.472 179.922 102.486 C 189.782 116.043 191.103 131.285 183.368 142.263 C 175.805 152.997 161.249 157.091 146.277 152.697 C 111.746 142.557 81.314 146.819 55.829 165.366 L 41.398 175.866 L 49.573 150.238 L 13.232 188.782 Z " fill="rgb(40,40,39)"/></g><g><path d=" M 129.93 66.577 C 124.728 80.131 109.644 87.699 95.668 83.764 C 79.922 79.33 71.608 66.676 73.604 50.625 C 75.59 34.663 86.377 20.668 98.81 3.416 C 88.597 25.156 97.273 27.193 100.018 27.084 C 102.73 26.977 106.689 27.439 112.323 29.309 C 127.676 34.404 135.791 51.305 129.93 66.577 Z " fill="rgb(255,111,33)"/></g><g><path d=" M 89.619 26.713 C 84.226 35.17 80.438 43.031 79.404 51.346 C 77.766 64.515 84.438 74.531 97.253 78.138 C 108.378 81.271 120.334 75.273 124.475 64.484 C 126.72 58.632 126.486 52.303 123.816 46.662 C 121.144 41.015 116.409 36.821 110.483 34.856 C 105.282 33.129 102.045 32.856 100.25 32.924 C 96.222 33.082 92.504 31.206 90.312 27.9 C 90.059 27.519 89.828 27.124 89.619 26.713 Z  M 103.202 90.648 C 100.172 90.648 97.11 90.241 94.085 89.389 C 85.01 86.833 77.758 81.783 73.114 74.782 C 68.484 67.804 66.649 59.201 67.804 49.903 C 69.847 33.489 79.963 19.505 91.676 3.312 C 92.466 2.22 93.264 1.118 94.07 0 L 104.099 5.902 C 99.149 16.44 99.717 20.342 99.977 21.232 C 103.959 21.111 108.732 21.959 114.164 23.762 C 123.15 26.744 130.33 33.101 134.38 41.663 C 138.429 50.218 138.786 59.81 135.387 68.671 C 130.23 82.107 117.081 90.648 103.202 90.648 Z " fill="rgb(40,40,39)"/></g><g><path d=" M 115.162 118.34 C 113.116 118.34 111.199 117.43 109.906 115.846 L 105.974 111.03 C 103.695 108.24 104.022 104.157 106.656 101.758 C 105.805 101.341 105.044 100.741 104.426 99.984 L 103.529 98.885 C 101.168 95.995 101.6 91.724 104.489 89.365 L 105.054 88.904 L 99.295 81.835 C 96.734 78.699 97.204 74.058 100.343 71.493 C 101.66 70.42 103.31 69.833 104.995 69.833 C 107.209 69.833 109.285 70.816 110.689 72.532 L 135.252 102.764 C 137.809 105.897 137.339 110.538 134.2 113.102 C 133.334 113.81 132.296 114.319 131.205 114.571 C 130.663 114.697 130.105 114.759 129.548 114.759 L 129.548 114.759 C 127.634 114.759 125.824 114.025 124.462 112.72 L 119.45 116.811 C 118.243 117.796 116.719 118.34 115.162 118.34 Z " fill="rgb(61,204,142)"/></g><g><path d=" M 114.388 69.502 C 112.072 66.673 108.648 65.052 104.996 65.052 C 102.213 65.052 99.49 66.021 97.33 67.78 C 92.137 72.022 91.364 79.68 95.594 84.861 L 98.793 88.789 C 96.443 92.83 96.698 98.079 99.825 101.909 L 100.427 102.647 C 99.012 106.378 99.569 110.747 102.27 114.054 L 106.202 118.87 C 108.406 121.571 111.672 123.121 115.161 123.121 C 117.819 123.121 120.416 122.196 122.474 120.515 L 124.83 118.593 C 126.303 119.212 127.902 119.541 129.548 119.541 C 130.466 119.541 131.385 119.437 132.279 119.23 C 134.082 118.814 135.792 117.976 137.225 116.805 C 142.405 112.573 143.178 104.915 138.95 99.733 L 114.411 69.531 L 114.388 69.502 Z  M 104.996 74.614 C 105.74 74.614 106.479 74.938 106.989 75.562 L 131.541 105.779 C 132.44 106.881 132.275 108.501 131.175 109.399 C 130.858 109.658 130.5 109.827 130.128 109.912 C 129.938 109.957 129.743 109.979 129.548 109.979 C 128.802 109.979 128.063 109.656 127.554 109.033 L 125.109 106.02 L 116.427 113.106 C 116.056 113.411 115.608 113.558 115.161 113.558 C 114.581 113.558 114.005 113.306 113.609 112.822 L 109.677 108.006 C 108.986 107.16 109.112 105.913 109.959 105.221 L 118.683 98.1 L 115.119 93.705 L 110.803 97.231 C 110.449 97.518 110.025 97.659 109.603 97.659 C 109.053 97.659 108.507 97.42 108.131 96.961 L 107.232 95.86 C 106.539 95.012 106.665 93.762 107.513 93.069 L 111.778 89.587 L 103.001 78.814 C 102.103 77.714 102.267 76.094 103.367 75.196 C 103.848 74.805 104.424 74.614 104.996 74.614 Z " fill="rgb(40,40,40)"/></g></g></g></svg>