<svg xmlns="http://www.w3.org/2000/svg" viewBox="0 0 217.8 199"><g clip-path="url(#_clipPath_PE9imwhvoegy3FUun1c5KYbLn6iH4SY5)"><path d="M108.911 14.51C48.761 14.51 0 63.271 0 123.421c0 20.767 5.814 40.173 15.9 56.687l28.453-30.211 144.011.9L187.322 199c18.883-19.586 30.5-46.225 30.5-75.579 0-60.15-48.761-108.911-108.911-108.911z" fill="#33A0FF"/><path d="M59.678 45.552c-5.308-.326-9.376-4.912-9.067-10.226l.721-11.636c.315-5.09 4.56-9.079 9.661-9.079.191 0 .383.006.575.018l11.629.72a9.6 9.6 0 0 1 6.65 3.248 9.6 9.6 0 0 1 2.406 7.02l-.714 11.591a7.008 7.008 0 0 1-.26 1.49l-.413 2.025-7.653 5.666-13.535-.837z" fill="#3DCC8E"/><path d="M60.994 8.768c-8.182 0-14.988 6.395-15.494 14.561l-.721 11.615-.001.022-.001.021c-.496 8.521 6.031 15.876 14.548 16.398l11.401.705 4.252.262 3.424-2.534 4.141-3.065 3.598-2.664.827-4.039c.163-.62.34-1.454.404-2.475l.713-11.602A15.403 15.403 0 0 0 84.22 14.72a15.4 15.4 0 0 0-10.677-5.205l-11.596-.719h-.017l-.017-.001a15.664 15.664 0 0 0-.919-.027zm8.683 25.35l.427-6.909-6.91-.427-.429 6.91 6.912.426zm-8.683-13.663c.076 0 .153.003.231.007l11.61.72a3.795 3.795 0 0 1 2.632 1.284 3.803 3.803 0 0 1 .954 2.778l-.715 11.605c-.011.18-.083.338-.117.509l-4.141 3.066-11.409-.705a3.844 3.844 0 0 1-3.594-4.053l.72-11.614a3.835 3.835 0 0 1 3.829-3.597z" fill="#282828"/><path d="M108.911 70.962c-45.473 0-82.337 36.864-82.337 82.337 0 16.91 5.1 32.625 13.842 45.7h140.297c7.385-13.487 10.535-29.456 10.535-45.7 0-42.086-36.864-82.337-82.337-82.337z" fill="#FFF"/><path d="M108.911 65.118c-48.623 0-88.181 39.558-88.181 88.181 0 16.718 4.677 32.366 12.791 45.701h14.087c-9.537-12.759-15.189-28.583-15.189-45.701 0-42.178 34.313-76.494 76.492-76.494 20.034 0 39.223 8.388 54.031 23.618 14.275 14.68 22.463 33.953 22.463 52.876 0 12.956-2.14 30.563-11.443 45.701h13.34c6.438-12.959 9.79-28.453 9.79-45.701 0-21.94-9.392-44.182-25.77-61.025-17.028-17.512-39.193-27.156-62.411-27.156z" fill="#282827"/><path d="M92.287 177.2a7.904 7.904 0 1 1-15.808 0 7.904 7.904 0 0 1 7.904-7.904 7.904 7.904 0 0 1 7.904 7.904zM141.343 177.2a7.904 7.904 0 1 1-15.808 0 7.904 7.904 0 0 1 7.904-7.904 7.904 7.904 0 0 1 7.904 7.904z" fill="#282827"/><path d="M19.075 174.065l43.875-46.532-10.56 33.107c34.254-24.927 70.214-20.986 95.534-13.55 26.875 7.891 45.691-15.845 27.271-41.165-8.752-12.034-20.758-22.025-34.395-28.084-35.768-15.889-71.729-6.625-95.988 17.88-25.697 25.959-25.737 54.751-25.737 78.344z" fill="#FF6F21"/><path d="M104.788 75.827c-5.093 0-10.15.508-15.121 1.53-15.159 3.118-29.233 10.89-40.701 22.476-19.05 19.243-23.009 39.896-23.831 59.287l51.192-54.294-13.553 42.486c25.469-13.315 54.591-15.285 86.796-5.829 10.248 3.009 19.537.728 24.243-5.951 4.835-6.863 3.585-16.645-3.343-26.17-8.279-11.381-19.659-20.678-32.043-26.181-10.984-4.879-22.395-7.354-33.639-7.354zM13.232 188.782v-14.717c0-24.392 0-54.748 27.427-82.455 13.096-13.229 29.229-22.116 46.653-25.701 18.343-3.773 37.659-1.494 55.861 6.591 14.23 6.322 27.282 16.972 36.749 29.986 9.86 13.557 11.181 28.799 3.446 39.777-7.563 10.734-22.119 14.828-37.091 10.434-34.531-10.14-64.963-5.878-90.448 12.669l-14.431 10.5 8.175-25.628-36.341 38.544z" fill="#282827"/><path d="M129.93 66.577c-5.202 13.554-20.286 21.122-34.262 17.187-15.746-4.434-24.06-17.088-22.064-33.139C75.59 34.663 86.377 20.668 98.81 3.416c-10.213 21.74-1.537 23.777 1.208 23.668 2.712-.107 6.671.355 12.305 2.225 15.353 5.095 23.468 21.996 17.607 37.268z" fill="#FF6F21"/><path d="M89.619 26.713c-5.393 8.457-9.181 16.318-10.215 24.633-1.638 13.169 5.034 23.185 17.849 26.792 11.125 3.133 23.081-2.865 27.222-13.654 2.245-5.852 2.011-12.181-.659-17.822-2.672-5.647-7.407-9.841-13.333-11.806-5.201-1.727-8.438-2-10.233-1.932-4.028.158-7.746-1.718-9.938-5.024a11.864 11.864 0 0 1-.693-1.187zm13.583 63.935c-3.03 0-6.092-.407-9.117-1.259-9.075-2.556-16.327-7.606-20.971-14.607-4.63-6.978-6.465-15.581-5.31-24.879 2.043-16.414 12.159-30.398 23.872-46.591.79-1.092 1.588-2.194 2.394-3.312l10.029 5.902c-4.95 10.538-4.382 14.44-4.122 15.33 3.982-.121 8.755.727 14.187 2.53 8.986 2.982 16.166 9.339 20.216 17.901 4.049 8.555 4.406 18.147 1.007 27.008-5.157 13.436-18.306 21.977-32.185 21.977z" fill="#282827"/><path d="M115.162 118.34a6.761 6.761 0 0 1-5.256-2.494l-3.932-4.816c-2.279-2.79-1.952-6.873.682-9.272a6.66 6.66 0 0 1-2.23-1.774l-.897-1.099a6.773 6.773 0 0 1 .96-9.52l.565-.461-5.759-7.069c-2.561-3.136-2.091-7.777 1.048-10.342a7.382 7.382 0 0 1 4.652-1.66 7.33 7.33 0 0 1 5.694 2.699l24.563 30.232c2.557 3.133 2.087 7.774-1.052 10.338a7.33 7.33 0 0 1-4.652 1.657 7.33 7.33 0 0 1-5.086-2.039l-5.012 4.091a6.805 6.805 0 0 1-4.288 1.529z" fill="#3DCC8E"/><path d="M114.388 69.502a12.095 12.095 0 0 0-9.392-4.45c-2.783 0-5.506.969-7.666 2.728-5.193 4.242-5.966 11.9-1.736 17.081l3.199 3.928c-2.35 4.041-2.095 9.29 1.032 13.12l.602.738c-1.415 3.731-.858 8.1 1.843 11.407l3.932 4.816a11.52 11.52 0 0 0 8.959 4.251 11.59 11.59 0 0 0 7.313-2.606l2.356-1.922a12.163 12.163 0 0 0 12.395-1.788c5.18-4.232 5.953-11.89 1.725-17.072l-24.539-30.202-.023-.029zm-9.392 5.112c.744 0 1.483.324 1.993.948l24.552 30.217a2.573 2.573 0 1 1-3.987 3.254l-2.445-3.013-8.682 7.086a2.002 2.002 0 0 1-2.818-.284l-3.932-4.816a1.98 1.98 0 0 1 .282-2.785l8.724-7.121-3.564-4.395-4.316 3.526a1.9 1.9 0 0 1-2.672-.27l-.899-1.101a1.984 1.984 0 0 1 .281-2.791l4.265-3.482-8.777-10.773a2.572 2.572 0 0 1 1.995-4.2z" fill="#282828"/></g></svg>