<svg width="500" height="500" xmlns="http://www.w3.org/2000/svg" xmlns:xlink="http://www.w3.org/1999/xlink"><defs><path id="a" d="M0 0h129.847v141.389H0z"/><path id="c" d="M0 0h129.847v141.389H0z"/></defs><g fill="none" fill-rule="evenodd"><circle fill="#202830" cx="250" cy="250" r="250"/><g transform="translate(61 180)"><ellipse fill="#00E054" cx="189" cy="69.973" rx="70.079" ry="69.973"/><g transform="translate(248.153)"><mask id="b" fill="#fff"><use xlink:href="#a"/></mask><ellipse fill="#40BCF4" mask="url(#b)" cx="59.769" cy="69.973" rx="70.079" ry="69.973"/></g><mask id="d" fill="#fff"><use xlink:href="#c"/></mask><ellipse fill="#FF8000" mask="url(#d)" cx="70.079" cy="69.973" rx="70.079" ry="69.973"/><path d="M129.54 107.022c-6.73-10.744-10.619-23.443-10.619-37.049 0-13.606 3.89-26.305 10.618-37.049 6.73 10.744 10.618 23.443 10.618 37.05 0 13.605-3.889 26.304-10.618 37.048zM248.46 32.924c6.73 10.744 10.619 23.443 10.619 37.05 0 13.605-3.89 26.304-10.618 37.048-6.73-10.744-10.618-23.443-10.618-37.049 0-13.606 3.889-26.305 10.618-37.049z" fill="#FFF"/></g></g></svg>