<?xml version="1.0" encoding="UTF-8" standalone="no"?>
<svg width="600px" height="600px" viewBox="0 0 600 600" version="1.1" xmlns="http://www.w3.org/2000/svg" xmlns:xlink="http://www.w3.org/1999/xlink" xmlns:sketch="http://www.bohemiancoding.com/sketch/ns">
    <!-- Generator: Sketch 3.3.3 (12072) - http://www.bohemiancoding.com/sketch -->
    <title>letterboxd-decal</title>
    <desc>Created with Sketch.</desc>
    <defs></defs>
    <g id="Page-1" stroke="none" stroke-width="1" fill="none" fill-rule="evenodd" sketch:type="MSPage">
        <g id="letterboxd-decal" sketch:type="MSArtboardGroup" fill="#000000">
            <path id="Fill-1" d="m217.163635,406.127991l0,-213.327988l-38.981796,0l0,-53.600006l141.309067,0l0,53.600006l-38.981812,0l0,213.815292l87.66037,0l0,-58.472748l63.394196,0l0,112.65744l-253.381821,0l0,-54.671997l38.981796,0l0,0zm-185.163635,-106.127991c0,148.033478 119.966553,268 268,268c148.033478,0 268,-119.966522 268,-268c0,-148.033447 -119.966522,-268 -268,-268c-148.033447,0 -268,119.966553 -268,268l0,0l0,0z"/>
        </g>
    </g>
</svg>