<?xml version="1.0" standalone="no"?>
<!DOCTYPE svg PUBLIC "-//W3C//DTD SVG 20010904//EN"
 "http://www.w3.org/TR/2001/REC-SVG-20010904/DTD/svg10.dtd">
<svg version="1.0" xmlns="http://www.w3.org/2000/svg"
 width="200.000000pt" height="200.000000pt" viewBox="0 0 200.000000 200.000000"
 preserveAspectRatio="xMidYMid meet">
<metadata>
Created by potrace 1.11, written by Peter Selinger 2001-2013
</metadata>
<g transform="translate(0.000000,200.000000) scale(0.100000,-0.100000)"
fill="#000000" stroke="none">
<path d="M889 1995 c-2 -1 -23 -5 -47 -9 -383 -52 -714 -359 -814 -751 -25
-102 -32 -309 -12 -412 59 -315 261 -582 545 -721 86 -41 205 -79 288 -90 62
-8 244 -8 303 0 138 20 276 74 404 160 97 65 141 104 214 194 160 194 231 403
225 659 -5 242 -74 426 -233 619 -181 220 -440 343 -738 351 -73 2 -133 2
-135 0z"/>
</g>
</svg>
