<svg xmlns="http://www.w3.org/2000/svg" viewBox="0 0 250 203.1"><defs><clipPath id="a"><path d="M0 0h250v203.1H0z"/></clipPath></defs><g clip-path="url(#a)"><path fill="none" d="M75 98.45h250v203.14H75z"/><path d="M78.62 203.14c94.34 0 145.94-78.16 145.94-145.94 0-2.22 0-4.43-.15-6.63A104.372 104.372 0 0 0 250 24.02a102.39 102.39 0 0 1-29.46 8.07 51.475 51.475 0 0 0 22.55-28.37 102.806 102.806 0 0 1-32.57 12.45C194.621-.736 169.357-4.874 148.895 6.076c-20.461 10.951-31.032 34.267-25.785 56.874A145.623 145.623 0 0 1 17.4 9.36C3.786 32.796 10.74 62.778 33.28 77.83A50.912 50.912 0 0 1 10 71.41v.65c.007 24.416 17.218 45.445 41.15 50.28a51.222 51.222 0 0 1-23.16.88c6.719 20.894 25.976 35.208 47.92 35.62a102.924 102.924 0 0 1-63.7 22A104.461 104.461 0 0 1 0 180.1a145.217 145.217 0 0 0 78.62 23" fill="#1DA1F2"/></g></svg>