<?xml version="1.0" standalone="no"?><!-- Generator: Gravit.io --><svg xmlns="http://www.w3.org/2000/svg" xmlns:xlink="http://www.w3.org/1999/xlink" style="isolation:isolate" viewBox="0 0 250 203.1" width="250" height="203.1"><defs><clipPath id="_clipPath_ogTHzyE1pvj3hhGLbQSRMeWDV6nia2UW"><rect width="250" height="203.1"/></clipPath></defs><g clip-path="url(#_clipPath_ogTHzyE1pvj3hhGLbQSRMeWDV6nia2UW)"><g><g><rect x="75" y="98.45" width="250" height="203.14" transform="matrix(1,0,0,1,0,0)" fill="none"/></g></g><path d=" M 78.62 203.14 C 172.96 203.14 224.56 124.98 224.56 57.2 C 224.56 54.98 224.56 52.77 224.41 50.57 C 234.448 43.309 243.114 34.318 250 24.02 C 240.639 28.168 230.708 30.888 220.54 32.09 C 231.247 25.68 239.261 15.597 243.09 3.72 C 233.022 9.694 222.006 13.905 210.52 16.17 C 194.621 -0.736 169.357 -4.874 148.895 6.076 C 128.434 17.027 117.863 40.343 123.11 62.95 C 81.869 60.882 43.445 41.403 17.4 9.36 C 3.786 32.796 10.74 62.778 33.28 77.83 C 25.117 77.588 17.133 75.386 10 71.41 C 10 71.62 10 71.84 10 72.06 C 10.007 96.476 27.218 117.505 51.15 122.34 C 43.599 124.399 35.676 124.7 27.99 123.22 C 34.709 144.114 53.966 158.428 75.91 158.84 C 57.747 173.114 35.311 180.863 12.21 180.84 C 8.129 180.832 4.052 180.585 0 180.1 C 23.456 195.152 50.749 203.137 78.62 203.1" fill="rgb(29,161,242)"/></g></svg>